<?xml version="1.0" encoding="UTF-8" standalone="no"?>
<svg
   xmlns:dc="http://purl.org/dc/elements/1.1/"
   xmlns:cc="http://creativecommons.org/ns#"
   xmlns:rdf="http://www.w3.org/1999/02/22-rdf-syntax-ns#"
   xmlns:svg="http://www.w3.org/2000/svg"
   xmlns="http://www.w3.org/2000/svg"
   version="1.1"
   id="svg2"
   viewBox="0 0 36 36.000001"
   height="36"
   width="36">
  <defs
     id="defs4" />
  <metadata
     id="metadata7">
    <rdf:RDF>
      <cc:Work
         rdf:about="">
        <dc:format>image/svg+xml</dc:format>
        <dc:type
           rdf:resource="http://purl.org/dc/dcmitype/StillImage" />
        <dc:title></dc:title>
      </cc:Work>
    </rdf:RDF>
  </metadata>
  <g
     transform="translate(0,-1016.3622)"
     id="layer1">
    <path
       id="use4158"
       transform="translate(0,1016.3622)"
       d="M 0 0 L 0 10 L 10 10 L 10 0 L 0 0 z M 4.8085938 1.2265625 C 5.6809896 1.2265625 6.3580729 1.4186198 6.8398438 1.8027344 C 7.3248698 2.186849 7.5683594 2.7233073 7.5683594 3.4101562 C 7.5683594 3.8072917 7.4648438 4.1783854 7.2597656 4.5234375 C 7.0546875 4.8652344 6.624349 5.3242188 5.9667969 5.9003906 L 4.4082031 7.2675781 L 7.6171875 7.2675781 L 7.6171875 8.6484375 L 2.3183594 8.6484375 L 2.3183594 7.2675781 L 4.9804688 4.9179688 C 5.218099 4.703125 5.3938802 4.4941406 5.5078125 4.2890625 C 5.6217448 4.0839844 5.6777344 3.8697917 5.6777344 3.6484375 C 5.6777344 3.3066406 5.563151 3.0325521 5.3320312 2.8242188 C 5.1041667 2.6158854 4.7988281 2.5117188 4.4179688 2.5117188 C 4.125 2.5117188 3.8053385 2.5742188 3.4570312 2.7011719 C 3.108724 2.8248698 2.735026 3.0104167 2.3378906 3.2578125 L 2.3378906 1.65625 C 2.7610677 1.516276 3.1803385 1.4114583 3.59375 1.3398438 C 4.0071615 1.264974 4.4114583 1.2265625 4.8085938 1.2265625 z "
       style="color:#000000;clip-rule:nonzero;display:inline;overflow:visible;visibility:visible;opacity:1;isolation:auto;mix-blend-mode:normal;color-interpolation:sRGB;color-interpolation-filters:linearRGB;solid-color:#000000;solid-opacity:1;fill:#bebebe;fill-opacity:0.93333333;fill-rule:nonzero;stroke:none;stroke-width:0;stroke-linecap:butt;stroke-linejoin:round;stroke-miterlimit:4;stroke-dasharray:none;stroke-dashoffset:0;stroke-opacity:1;color-rendering:auto;image-rendering:auto;shape-rendering:auto;text-rendering:auto;enable-background:accumulate" />
    <path
       id="use4306"
       transform="translate(0,1016.3622)"
       d="M 0 13 L 0 23 L 10 23 L 10 13 L 0 13 z M 5.5546875 14.230469 C 5.889974 14.230469 6.2154948 14.25651 6.53125 14.308594 C 6.8470052 14.360677 7.1595052 14.438802 7.46875 14.542969 L 7.46875 15.890625 C 7.1595052 15.744141 6.8671875 15.636719 6.59375 15.568359 C 6.3203125 15.496745 6.0533854 15.460938 5.7929688 15.460938 C 5.2330729 15.460938 4.796875 15.617188 4.484375 15.929688 C 4.171875 16.238932 3.9895833 16.698568 3.9375 17.310547 C 4.1523438 17.151042 4.3860677 17.033203 4.6367188 16.955078 C 4.8873698 16.873698 5.1608073 16.832031 5.4570312 16.832031 C 6.202474 16.832031 6.8020833 17.05013 7.2578125 17.486328 C 7.7167969 17.922526 7.9472656 18.494792 7.9472656 19.201172 C 7.9472656 19.982422 7.6907552 20.608073 7.1796875 21.080078 C 6.6686198 21.548828 5.984375 21.783203 5.125 21.783203 C 4.1777344 21.783203 3.4427083 21.464193 2.921875 20.826172 C 2.4042969 20.184896 2.1464844 19.276693 2.1464844 18.101562 C 2.1464844 16.897135 2.4492188 15.952474 3.0546875 15.265625 C 3.6634115 14.575521 4.4967448 14.230469 5.5546875 14.230469 z M 5.1445312 18.042969 C 4.8157552 18.042969 4.5683594 18.150391 4.4023438 18.365234 C 4.2395833 18.576823 4.1582031 18.895833 4.1582031 19.322266 C 4.1582031 19.748698 4.2395833 20.070312 4.4023438 20.285156 C 4.5683594 20.496745 4.8157552 20.601562 5.1445312 20.601562 C 5.4765625 20.601562 5.7239583 20.496745 5.8867188 20.285156 C 6.0527344 20.070312 6.1347656 19.748698 6.1347656 19.322266 C 6.1347656 18.895833 6.0527344 18.576823 5.8867188 18.365234 C 5.7239583 18.150391 5.4765625 18.042969 5.1445312 18.042969 z "
       style="color:#000000;clip-rule:nonzero;display:inline;overflow:visible;visibility:visible;opacity:1;isolation:auto;mix-blend-mode:normal;color-interpolation:sRGB;color-interpolation-filters:linearRGB;solid-color:#000000;solid-opacity:1;fill:#bebebe;fill-opacity:0.93333333;fill-rule:nonzero;stroke:none;stroke-width:0;stroke-linecap:butt;stroke-linejoin:round;stroke-miterlimit:4;stroke-dasharray:none;stroke-dashoffset:0;stroke-opacity:1;color-rendering:auto;image-rendering:auto;shape-rendering:auto;text-rendering:auto;enable-background:accumulate" />
    <path
       id="use4308"
       transform="translate(0,1016.3622)"
       d="M 0 26 L 0 36 L 10 36 L 10 26 L 0 26 z M 2.1933594 27.351562 L 7.6875 27.351562 L 7.6875 28.412109 L 4.8457031 34.642578 L 3.0136719 34.642578 L 5.7050781 28.734375 L 2.1933594 28.734375 L 2.1933594 27.351562 z "
       style="color:#000000;clip-rule:nonzero;display:inline;overflow:visible;visibility:visible;opacity:1;isolation:auto;mix-blend-mode:normal;color-interpolation:sRGB;color-interpolation-filters:linearRGB;solid-color:#000000;solid-opacity:1;fill:#bebebe;fill-opacity:0.93333333;fill-rule:nonzero;stroke:none;stroke-width:0;stroke-linecap:butt;stroke-linejoin:round;stroke-miterlimit:4;stroke-dasharray:none;stroke-dashoffset:0;stroke-opacity:1;color-rendering:auto;image-rendering:auto;shape-rendering:auto;text-rendering:auto;enable-background:accumulate" />
    <path
       id="use4310"
       transform="translate(0,1016.3622)"
       d="M 13 0 L 13 10 L 23 10 L 23 0 L 13 0 z M 17.681641 1.21875 C 18.628906 1.21875 19.335938 1.375 19.804688 1.6875 C 20.276693 1.9967448 20.513672 2.4628906 20.513672 3.0878906 C 20.513672 3.5143229 20.400391 3.8652344 20.175781 4.1386719 C 19.951172 4.4088542 19.619141 4.5983073 19.179688 4.7089844 C 19.671224 4.8359375 20.044922 5.0572917 20.298828 5.3730469 C 20.55599 5.6855469 20.683594 6.0852865 20.683594 6.5703125 C 20.683594 7.2929688 20.406901 7.843099 19.853516 8.2207031 C 19.30013 8.5950521 18.492839 8.78125 17.431641 8.78125 C 17.057292 8.78125 16.682292 8.7513021 16.304688 8.6894531 C 15.930339 8.6308594 15.559245 8.5403646 15.191406 8.4199219 L 15.191406 6.9707031 C 15.542969 7.1464844 15.891276 7.2799479 16.236328 7.3710938 C 16.584635 7.4589844 16.926432 7.5019531 17.261719 7.5019531 C 17.759766 7.5019531 18.140625 7.4166667 18.404297 7.2441406 C 18.671224 7.0716146 18.804688 6.8242188 18.804688 6.5019531 C 18.804688 6.1699219 18.667969 5.9192708 18.394531 5.75 C 18.124349 5.577474 17.723958 5.4902344 17.193359 5.4902344 L 16.441406 5.4902344 L 16.441406 4.2792969 L 17.232422 4.2792969 C 17.704427 4.2792969 18.05599 4.2070312 18.287109 4.0605469 C 18.518229 3.9108073 18.632812 3.6835938 18.632812 3.3808594 C 18.632812 3.1009115 18.521484 2.8854167 18.296875 2.7324219 C 18.072266 2.5794271 17.753906 2.5019531 17.34375 2.5019531 C 17.041016 2.5019531 16.735026 2.5371094 16.425781 2.6054688 C 16.116536 2.6738281 15.809896 2.7747396 15.503906 2.9082031 L 15.503906 1.53125 C 15.875 1.4270833 16.242839 1.3489583 16.607422 1.296875 C 16.972005 1.2447917 17.330078 1.21875 17.681641 1.21875 z "
       style="color:#000000;clip-rule:nonzero;display:inline;overflow:visible;visibility:visible;opacity:1;isolation:auto;mix-blend-mode:normal;color-interpolation:sRGB;color-interpolation-filters:linearRGB;solid-color:#000000;solid-opacity:1;fill:#bebebe;fill-opacity:0.93333333;fill-rule:nonzero;stroke:none;stroke-width:0;stroke-linecap:butt;stroke-linejoin:round;stroke-miterlimit:4;stroke-dasharray:none;stroke-dashoffset:0;stroke-opacity:1;color-rendering:auto;image-rendering:auto;shape-rendering:auto;text-rendering:auto;enable-background:accumulate" />
    <path
       id="use4312"
       transform="translate(0,1016.3622)"
       d="M 13 13 L 13 23 L 23 23 L 23 13 L 13 13 z M 17.892578 14.351562 L 19.982422 14.351562 L 19.982422 18.951172 L 21.023438 18.951172 L 21.023438 20.3125 L 19.982422 20.3125 L 19.982422 21.640625 L 18.205078 21.640625 L 18.205078 20.3125 L 14.972656 20.3125 L 14.972656 18.701172 L 17.892578 14.351562 z M 18.205078 15.898438 L 16.144531 18.951172 L 18.205078 18.951172 L 18.205078 15.898438 z "
       style="color:#000000;clip-rule:nonzero;display:inline;overflow:visible;visibility:visible;opacity:1;isolation:auto;mix-blend-mode:normal;color-interpolation:sRGB;color-interpolation-filters:linearRGB;solid-color:#000000;solid-opacity:1;fill:#bebebe;fill-opacity:0.93333333;fill-rule:nonzero;stroke:none;stroke-width:0;stroke-linecap:butt;stroke-linejoin:round;stroke-miterlimit:4;stroke-dasharray:none;stroke-dashoffset:0;stroke-opacity:1;color-rendering:auto;image-rendering:auto;shape-rendering:auto;text-rendering:auto;enable-background:accumulate" />
    <path
       id="use4314"
       transform="translate(0,1016.3622)"
       d="M 13 26 L 13 36 L 23 36 L 23 26 L 13 26 z M 18.001953 27.232422 C 18.884115 27.232422 19.554688 27.392578 20.013672 27.714844 C 20.472656 28.033854 20.703125 28.502604 20.703125 29.121094 C 20.703125 29.534505 20.589193 29.879557 20.361328 30.15625 C 20.136719 30.432943 19.802083 30.638021 19.359375 30.771484 C 19.854167 30.908203 20.227865 31.132161 20.478516 31.441406 C 20.732422 31.747396 20.859375 32.134766 20.859375 32.603516 C 20.859375 33.326172 20.61849 33.873047 20.136719 34.244141 C 19.658203 34.611979 18.945964 34.794922 18.001953 34.794922 C 17.054688 34.794922 16.338542 34.611979 15.853516 34.244141 C 15.371745 33.873047 15.130859 33.326172 15.130859 32.603516 C 15.130859 32.134766 15.257161 31.747396 15.507812 31.441406 C 15.761719 31.132161 16.136068 30.908203 16.630859 30.771484 C 16.188151 30.638021 15.853516 30.432943 15.628906 30.15625 C 15.404297 29.879557 15.292969 29.534505 15.292969 29.121094 C 15.292969 28.505859 15.521484 28.037109 15.980469 27.714844 C 16.439453 27.392578 17.113281 27.232422 18.001953 27.232422 z M 18.001953 28.414062 C 17.702474 28.414062 17.471354 28.492188 17.308594 28.648438 C 17.149089 28.804688 17.070312 29.026042 17.070312 29.3125 C 17.070312 29.602214 17.149089 29.824219 17.308594 29.980469 C 17.471354 30.136719 17.702474 30.214844 18.001953 30.214844 C 18.294922 30.214844 18.522135 30.136719 18.681641 29.980469 C 18.841146 29.824219 18.919922 29.602214 18.919922 29.3125 C 18.919922 29.022786 18.841146 28.801432 18.681641 28.648438 C 18.522135 28.492188 18.294922 28.414062 18.001953 28.414062 z M 18.001953 31.392578 C 17.650391 31.392578 17.380208 31.48763 17.191406 31.679688 C 17.002604 31.871745 16.908203 32.147786 16.908203 32.505859 C 16.908203 32.863932 17.002604 33.138021 17.191406 33.330078 C 17.380208 33.51888 17.650391 33.613281 18.001953 33.613281 C 18.35026 33.613281 18.617188 33.51888 18.802734 33.330078 C 18.988281 33.138021 19.082031 32.863932 19.082031 32.505859 C 19.082031 32.144531 18.988281 31.86849 18.802734 31.679688 C 18.617188 31.48763 18.35026 31.392578 18.001953 31.392578 z "
       style="color:#000000;clip-rule:nonzero;display:inline;overflow:visible;visibility:visible;opacity:1;isolation:auto;mix-blend-mode:normal;color-interpolation:sRGB;color-interpolation-filters:linearRGB;solid-color:#000000;solid-opacity:1;fill:#bebebe;fill-opacity:0.93333333;fill-rule:nonzero;stroke:none;stroke-width:0;stroke-linecap:butt;stroke-linejoin:round;stroke-miterlimit:4;stroke-dasharray:none;stroke-dashoffset:0;stroke-opacity:1;color-rendering:auto;image-rendering:auto;shape-rendering:auto;text-rendering:auto;enable-background:accumulate" />
    <path
       id="use4316"
       transform="translate(0,1016.3622)"
       d="M 26 0 L 26 10 L 36 10 L 36 0 L 26 0 z M 28.580078 1.3613281 L 33.253906 1.3613281 L 33.253906 2.7421875 L 30.080078 2.7421875 L 30.080078 3.8710938 C 30.223307 3.8320312 30.366536 3.8027344 30.509766 3.7832031 C 30.65625 3.7604167 30.806641 3.7480469 30.962891 3.7480469 C 31.851562 3.7480469 32.544271 3.9720052 33.039062 4.4179688 C 33.533854 4.8606771 33.78125 5.4791667 33.78125 6.2734375 C 33.78125 7.0611979 33.511068 7.6770833 32.970703 8.1230469 C 32.433594 8.5690104 31.685547 8.7929688 30.728516 8.7929688 C 30.315104 8.7929688 29.904948 8.7513021 29.498047 8.6699219 C 29.094401 8.5917969 28.693359 8.4713542 28.292969 8.3085938 L 28.292969 6.8300781 C 28.690104 7.0579427 29.065104 7.2278646 29.419922 7.3417969 C 29.777995 7.4557292 30.115885 7.5136719 30.431641 7.5136719 C 30.88737 7.5136719 31.245443 7.4029948 31.505859 7.1816406 C 31.769531 6.9570312 31.900391 6.6542969 31.900391 6.2734375 C 31.900391 5.8893229 31.769531 5.5865885 31.505859 5.3652344 C 31.245443 5.1438802 30.88737 5.0332031 30.431641 5.0332031 C 30.161458 5.0332031 29.872396 5.0690104 29.566406 5.140625 C 29.260417 5.2089844 28.931641 5.3164062 28.580078 5.4628906 L 28.580078 1.3613281 z "
       style="color:#000000;clip-rule:nonzero;display:inline;overflow:visible;visibility:visible;opacity:1;isolation:auto;mix-blend-mode:normal;color-interpolation:sRGB;color-interpolation-filters:linearRGB;solid-color:#000000;solid-opacity:1;fill:#bebebe;fill-opacity:0.93333333;fill-rule:nonzero;stroke:none;stroke-width:0;stroke-linecap:butt;stroke-linejoin:round;stroke-miterlimit:4;stroke-dasharray:none;stroke-dashoffset:0;stroke-opacity:1;color-rendering:auto;image-rendering:auto;shape-rendering:auto;text-rendering:auto;enable-background:accumulate" />
    <path
       id="use4320"
       transform="translate(0,1016.3622)"
       d="M 26 17.25 L 26 27.25 L 36 27.25 L 36 17.25 L 26 17.25 z M 30.859375 18.542969 C 31.809896 18.542969 32.545573 18.86263 33.066406 19.503906 C 33.58724 20.145182 33.847656 21.052734 33.847656 22.224609 C 33.847656 23.429036 33.542318 24.376302 32.933594 25.066406 C 32.32487 25.753255 31.490885 26.095703 30.429688 26.095703 C 30.087891 26.095703 29.759766 26.069661 29.447266 26.017578 C 29.134766 25.96875 28.828776 25.89388 28.529297 25.792969 L 28.529297 24.445312 C 28.828776 24.585286 29.115234 24.692057 29.388672 24.763672 C 29.662109 24.832031 29.932292 24.865234 30.199219 24.865234 C 30.759115 24.865234 31.195313 24.711589 31.507812 24.402344 C 31.820312 24.089844 32.005208 23.627604 32.060547 23.015625 C 31.839193 23.178385 31.602214 23.299479 31.351562 23.380859 C 31.100911 23.46224 30.830078 23.503906 30.537109 23.503906 C 29.791667 23.503906 29.189453 23.286458 28.730469 22.853516 C 28.27474 22.417318 28.046875 21.844401 28.046875 21.134766 C 28.046875 20.35026 28.300781 19.722005 28.808594 19.25 C 29.319661 18.777995 30.003255 18.542969 30.859375 18.542969 z M 30.849609 19.724609 C 30.520833 19.724609 30.273438 19.832031 30.107422 20.046875 C 29.941406 20.261719 29.857422 20.580729 29.857422 21.003906 C 29.857422 21.430339 29.941406 21.75 30.107422 21.964844 C 30.273438 22.176432 30.520833 22.283203 30.849609 22.283203 C 31.178385 22.283203 31.425781 22.176432 31.591797 21.964844 C 31.757812 21.75 31.839844 21.430339 31.839844 21.003906 C 31.839844 20.580729 31.757812 20.261719 31.591797 20.046875 C 31.425781 19.832031 31.178385 19.724609 30.849609 19.724609 z "
       style="color:#000000;clip-rule:nonzero;display:inline;overflow:visible;visibility:visible;opacity:1;isolation:auto;mix-blend-mode:normal;color-interpolation:sRGB;color-interpolation-filters:linearRGB;solid-color:#000000;solid-opacity:1;fill:#bebebe;fill-opacity:0.93333333;fill-rule:nonzero;stroke:none;stroke-width:0;stroke-linecap:butt;stroke-linejoin:round;stroke-miterlimit:4;stroke-dasharray:none;stroke-dashoffset:0;stroke-opacity:1;color-rendering:auto;image-rendering:auto;shape-rendering:auto;text-rendering:auto;enable-background:accumulate" />
  </g>
</svg>
